<?xml version="1.0" encoding="utf-8"?>
<!-- Generator: Adobe Illustrator 16.0.0, SVG Export Plug-In . SVG Version: 6.00 Build 0)  -->
<!DOCTYPE svg PUBLIC "-//W3C//DTD SVG 1.1//EN" "http://www.w3.org/Graphics/SVG/1.1/DTD/svg11.dtd">
<svg version="1.1" id="Layer_1" xmlns="http://www.w3.org/2000/svg" xmlns:xlink="http://www.w3.org/1999/xlink" x="0px" y="0px"
	 width="1200px" height="1200px" viewBox="0 0 1200 1200" enable-background="new 0 0 1200 1200" xml:space="preserve">
<g id="illustration_1_">
	<path d="M642.114,923.2L647.9,970c10.599,46.497,45.899,49.83,55.399,4.5l11.2-49.5L642.114,923.2z"/>
	<path d="M532.5,922.7l12.1,47.3c9.899,41.83,43.232,49.83,55.4,4.5l9.5-51.8H532.5z"/>
	<path fill="#04213A" d="M513,541c7.5,57,6.9,148.9,6.9,228.2c0,55.8,10.1,110,10.1,155.8c56.6,0,41.7,0,82.6,0
		c0-46.8,1.9-101.397,1.9-154.497c0-75.9,0.948-148.833,2-191.667c5.9,0,14.859,0.099,20.26,0.099
		c1.333,40.249,2.073,114.101,2.073,189.901c0,54.9-0.333,112.064-0.333,156.164c45,0,21.899,0,79,0c0-43,13.7-97.5,13.7-154.5
		c0-79.5,1.234-167.003,5.8-229.5H513z"/>
	<g>
		<circle id="jawMid_2_" cx="625.5" cy="284.1" r="0.8"/>
		<circle id="rightJaw7_2_" cx="614.6" cy="282.1" r="0.8"/>
		<circle id="leftJaw7_2_" cx="636.4" cy="282.1" r="0.8"/>
		<circle id="rightJaw3_2_" cx="580.3" cy="226.6" r="0.8"/>
		<circle id="rightJaw2_2_" cx="580.3" cy="217.1" r="0.8"/>
		<circle id="leftJaw3_2_" cx="668.5" cy="227" r="0.8"/>
		<circle id="leftJaw2_2_" cx="668.5" cy="217.4" r="0.8"/>
		<circle id="topMid_2_" cx="624.7" cy="166" r="0.8"/>
		<circle id="leftTop0_2_" cx="642.4" cy="168.5" r="0.8"/>
		<circle id="rightTop0_2_" cx="606.8" cy="168.5" r="0.8"/>
	</g>
	<path fill="#04213A" d="M410.4,315l3,64.1c58.899,0.3,90.389,10.126,116.189,30.126L563.667,321
		C507.363,293.434,466.4,311.6,410.4,315z"/>
	<path fill="#04213A" d="M689.812,322.698L716,406.924c27-16.2,65.3-26.726,124.2-27.126v-60.423
		C784.2,315.975,759.668,294.718,689.812,322.698z"/>
	<path d="M413.438,315.313c-47.699,2.7-120.938,23.744-158.038,29.044c-37.1,5.3-40.1,40.1,5.3,39.5
		c45.399-0.6,92.55-4.607,157.633-5.732L413.438,315.313z"/>
	<path d="M834.3,380.618c65.95,0.047,113.3,2.802,158.7,3.402s42.4-34.2,5.3-39.5c-37.1-5.3-114.349-22.236-162.049-24.937
		L834.3,380.618z"/>
	<path fill="#0F4F84" d="M966.084,384.227l15.249-8.393c0,0,11-5.167,20.667-1.333c11.734,6.5-2.4,18-16.774,12.125
		C972.875,382.625,966.084,384.227,966.084,384.227z"/>
	<path fill="#0F4F84" d="M280.998,383.805L263.2,374.6c0,0-6.95-2.6-15.7,1.745c-6.616,5.465-1.875,13.905,11.25,10.655
		C271.029,382.521,280.998,383.805,280.998,383.805z"/>
	<path fill="#062A44" d="M504.5,565.3c13.89-80.149,13.3-147.021,25.332-194.453c12.601-27.468,15.34-44.133,32.14-56.82
		c14.7-11.056,46.738-20.037,62.438-19.804c15.601,0.233,46.489,6.158,61.09,17.332c16.5,12.687,21,28.945,29.11,58.905
		c12.671,46.539,13.09,112.072,28.89,194.84H501.11H504.5z"/>
	<line fill="none" x1="741.4" y1="564.8" x2="508.6" y2="564.8"/>
	<ellipse fill="#FFFFFF" cx="625.75" cy="306.664" rx="20.834" ry="4.5"/>
	<path fill="#F3AF9D" d="M616.2,277.5"/>
	<path d="M614.469,290.125l22.498,0.158c0,0,4.301,12.109,5.7,16.722c-2.1,1.904-9.1,2.216-15.5,2.177
		c-8.2-0.039-15.899-0.922-17.1-2.453L614.469,290.125z"/>
	<path fill="#04213A" d="M614.6,292.667h22.146c0.462,4.444-19.264,15.866-25.996,13.823L614.6,292.667z"/>
	<g id="girl-face">
		<path fill="#F2F2F2" d="M678.301,224.88c-0.838,5.336-13.4,16.316-20.425,19.244c-2.093,0.812,0.504,0.268-5.314,1.658
			c-3.459,0.827-2.579,0.548-4.537,0.897c-2.429,0.36-4.234,0.58-6.526,0.806c-2.504,0.274-2.504,0.274-5.452,0.389
			c-2.666-0.007-1.958,0-4.333,0c-2.575,0-0.875-0.005-3.375,0c-2.965-0.165-0.417,0-2.789-0.155
			c-2.811-0.157-0.298-0.014-2.468-0.135c-2.618-0.438-0.343-0.021-2.86-0.205c-2.633-0.149,0.238,0.019-2.183-0.19
			c-3.033-0.708-0.283,0.249-3.443-0.356c-2.135-0.264-2.135-0.264-5.96-0.769c-2.437-0.368-4.123-0.575-7.513-1.229
			c-6.458-1.246-10.797-2.094-15.585-4.065c-7.348-1.855-15.315-11.222-17.262-15.89c-0.379,2.258-0.451,14.947-0.162,16.935
			c2.725,18.756,15.667,29.97,21.825,35.456c0.25,0.48,2.121,1.277,2.358,1.75c3.025,1.864,6.018,2.711,8.917,5.65
			c0.709,0.923,2.99,1.783,4.943,3.236c6.88,1.833,11.74,3.977,21.281,4.531c0.703-0.257,3.713-0.973,4.4-1.167
			c-0.26-0.252,2.44-0.382,2.8-0.471c1.659-0.414,2.643-0.919,4.5-1.129c2.459-0.277,1.093-0.492,3.5-1.2
			c0.53-0.155,1.468-0.942,2.106-0.856c1.255-0.707,1.388-0.843,3.094-1.469c0.614-0.226,0.576-0.774,1.219-0.813
			c1.982-0.927,0.353-0.653,2.156-1.438c0.263-0.332,1.462-0.637,1.844-0.969c0.544-0.473,0.299-0.076,0.875-0.469
			c0.125-0.25,0.546-0.153,0.563-0.375c3.625-1.688,3.101-3.69,6.773-6.313C675.518,265.597,678.257,231.048,678.301,224.88z"/>
		<path id="_x3C_Path_x3E_" fill="#1F5FA8" d="M676.945,201.508c-7.703-24.274-30.473-33.338-34.346-34.708l-7.889-20.011
			c-0.543-1.524-2.475-1.814-3.484-0.525c-4.613,5.907-9.225,11.812-13.84,17.718c-3.508,0.61-8.256,1.708-13.654,3.817
			c-1.637,0.64-11.875,4.715-19.71,11.512c-15.011,13.022-14.131,36.775-15.522,42.839c-2.19,9.549,11.992,18.501,25.2,21.395
			c32.132,7.039,79.41,9.751,85.396-21.057C680.26,216.499,679.5,209.556,676.945,201.508 M600.313,227.9
			c-5.521-1.104-9.845-9.168-6.412-16.5c3.099-6.619,5.6-8.4,11.299-7.801c4.633,0.488,8.19,4.393,7.801,11.7
			C612.563,223.5,605.844,229.007,600.313,227.9 M643.4,228.7c-6.602-0.9-9.627-13.021-5.525-20.575
			c1.885-3.473,5.583-4.228,8.325-4.125c0.916,0.034,6.262,0.275,8.1,4.375c5.516,12.305-2.97,20.307-6.925,20.325"/>
		<circle id="jawMid_1_" cx="625.5" cy="284.1" r="0.8"/>
		<circle id="rightJaw7_1_" cx="614.6" cy="282.1" r="0.8"/>
		<circle id="leftJaw7_1_" cx="636.4" cy="282.1" r="0.8"/>
		<circle id="rightJaw3_1_" cx="580.3" cy="226.6" r="0.8"/>
		<circle id="rightJaw2_1_" cx="580.3" cy="217.1" r="0.8"/>
		<circle id="leftJaw3_1_" cx="668.5" cy="227" r="0.8"/>
		<circle id="leftJaw2_1_" cx="668.5" cy="217.4" r="0.8"/>
		<circle id="topMid_3_" cx="624.7" cy="166" r="0.8"/>
		<circle id="leftTop0_3_" cx="642.4" cy="168.5" r="0.8"/>
		<circle id="rightTop0_3_" cx="606.8" cy="168.5" r="0.8"/>
	</g>
	<g>
		<path fill="#0E3DA8" d="M586.771,206.037c4.312-6.893,19.43-10.662,29.012-6.274c0.856,2.283,1.5,6.892-0.704,5.637
			C610.576,204.7,601.791,198.919,586.771,206.037z"/>
		<circle id="rightBrow1_1_" cx="592.5" cy="203.2" r="0.8"/>
		<circle id="rightBrow4_1_" cx="615.8" cy="206.2" r="0.8"/>
		<circle id="rightBrow3_1_" cx="606" cy="202.2" r="0.8"/>
		<circle id="rightBrow0_1_" cx="588.5" cy="206.9" r="0.8"/>
		<circle id="rightBrow2_1_" cx="598.7" cy="202.2" r="0.8"/>
	</g>
	<g>
		<path fill="#0E3DA8" d="M658.912,204.937c-10.507-3.4-13.162-2.9-26.512,1.1c-0.42-0.8,0.069-3.95,0.629-6.25
			c8.346-3.011,21.255-2.15,28.4,6.25C660.449,205.637,659.963,205.474,658.912,204.937z"/>
		<circle id="leftBrow1_1_" cx="656.2" cy="203.6" r="0.8"/>
		<circle id="leftBrow4_1_" cx="632.6" cy="205.7" r="0.8"/>
		<circle id="leftBrow3_1_" cx="642.6" cy="202.5" r="0.8"/>
		<circle id="leftBrow0_1_" cx="660.2" cy="206.5" r="0.8"/>
		<circle id="leftBrow2_1_" cx="649.9" cy="202.1" r="0.8"/>
	</g>
	<g>
		<circle id="rightEye0_1_" cx="594.7" cy="215.1" r="0.8"/>
		<circle id="rightEye1_1_" cx="599.9" cy="211.4" r="0.8"/>
		<circle id="rightEye5_1_" cx="599.9" cy="217.4" r="0.8"/>
		<circle id="rightEye2_1_" cx="606.2" cy="211.4" r="0.8"/>
		<circle id="rightEye3_1_" cx="611.4" cy="215.6" r="0.8"/>
		<circle id="rightEye4_1_" cx="606.2" cy="216.6" r="0.8"/>
		<path fill="#F2F3F7" d="M653.95,216.706c0.356-6.291-2.78-11.542-7-11.729c-2.52-0.114-4.854,1.602-6.406,4.337
			c0.867,0.535,1.307,1.622,0.996,2.675c-0.337,1.154-1.454,1.862-2.582,1.689c-0.151,0.756-0.256,1.541-0.302,2.349
			c-0.355,6.29,2.78,11.543,7.003,11.731C649.878,227.945,653.591,222.998,653.95,216.706"/>
	</g>
	<g>
		<circle id="leftEye0_1_" cx="654.3" cy="215.1" r="0.8"/>
		<circle id="leftEye1_1_" cx="649.1" cy="211.4" r="0.8"/>
		<circle id="leftEye5_1_" cx="649.1" cy="217.4" r="0.8"/>
		<circle id="leftEye2_1_" cx="642.8" cy="211.4" r="0.8"/>
		<circle id="leftEye3_1_" cx="637.6" cy="215.6" r="0.8"/>
		<circle id="leftEye4_1_" cx="642.8" cy="216.6" r="0.8"/>
		<path fill="#F2F3F7" d="M610.019,217.324c1.48-6.047-0.6-11.744-4.646-12.725c-2.559-0.621-5.335,1.014-7.373,3.667
			c1.325,0.445,1.734,2,0.922,3.135c-0.91,1.271-0.922,1.053-2,1.068c-0.309,0.004-0.733-0.279-0.969-0.453
			c-0.101,0.327-0.507,1.419-0.589,1.757c-1.481,6.048,0.599,11.745,4.646,12.726C604.058,227.479,608.541,223.372,610.019,217.324"
			/>
	</g>
	<g>
		<path id="rightMiddleLip_2_" d="M610.8,254.6c0.4,0,0.8,0.4,0.8,0.8s-0.399,0.8-0.8,0.8c-0.399,0-0.8-0.4-0.8-0.8
			S610.4,254.6,610.8,254.6z"/>
		<circle id="upperLipBottomMid_1_" cx="624.5" cy="255.1" r="0.8"/>
		<circle id="rightUpperLipBottom1_1_" cx="620.6" cy="254.6" r="0.8"/>
		<path id="leftMiddleLip_2_" d="M638.2,254.6c0.399,0,0.8,0.4,0.8,0.8s-0.4,0.8-0.8,0.8c-0.4,0-0.8-0.4-0.8-0.8
			S637.8,254.6,638.2,254.6z"/>
		<circle id="leftUpperLipBottom1_1_" cx="628.4" cy="254.6" r="0.8"/>
		<path fill="#9E1C40" d="M585.699,240.999c0.188,2.296,0.721,6.073,2.224,9.591c2.338,5.474,5.843,8.966,7.952,10.768
			c2.005-0.893,4.011-1.783,6.016-2.676c1.148,2.171,2.298,4.343,3.446,6.514l5.856-4.004c1.253,1.997,2.51,3.995,3.763,5.993
			c2.023-1.707,4.044-3.412,6.064-5.118c1.698,1.753,3.395,3.508,5.096,5.26c1.62-2.005,3.244-4.012,4.866-6.02
			c1.762,1.401,3.524,2.801,5.288,4.201c1.314-1.834,2.63-3.666,3.944-5.5c2.12,0.794,4.242,1.589,6.359,2.384
			c1.673-1.007,3.923-2.644,5.978-5.199c3.837-4.771,5.001-10.267,5.23-12.599l-9.115,2.061c-1.168,2.321-1.954,3.577-3.126,5.899
			c-1.833-1.605-3.549-2.917-5.384-4.522c-2.207,2.298-4.532,4.299-6.74,6.596c-2.046-1.847-4.094-3.696-6.141-5.546
			c-1.952,2.044-3.902,4.086-5.852,6.129c-2.074-2.122-3.979-3.946-6.058-6.068l-6.676,5.36c-2.109-2.652-4.019-5.054-6.13-7.707
			c-1.745,1.451-3.688,2.651-5.432,4.101l-4.671-7.702L585.699,240.999z"/>
		<circle id="lowerLipTopMid_2_" cx="624.5" cy="258.1" r="0.8"/>
		<circle id="rightLowerLipTop0_2_" cx="620.6" cy="257.4" r="0.8"/>
		<circle id="leftLowerLipTop0_2_" cx="628.4" cy="257.4" r="0.8"/>
	</g>
	<g>
		<circle id="jawMid_3_" cx="625.5" cy="284.1" r="0.8"/>
		<circle id="rightJaw7_3_" cx="614.6" cy="282.1" r="0.8"/>
		<circle id="leftJaw7_3_" cx="636.4" cy="282.1" r="0.8"/>
		<circle id="rightJaw3_3_" cx="580.3" cy="226.6" r="0.8"/>
		<circle id="rightJaw2_3_" cx="580.3" cy="217.1" r="0.8"/>
		<circle id="leftJaw3_3_" cx="668.5" cy="227" r="0.8"/>
		<circle id="leftJaw2_3_" cx="668.5" cy="217.4" r="0.8"/>
		<circle id="topMid_1_" cx="624.7" cy="166" r="0.8"/>
		<circle id="leftTop0_1_" cx="642.4" cy="168.5" r="0.8"/>
		<circle id="rightTop0_1_" cx="606.8" cy="168.5" r="0.8"/>
	</g>
	<g>
		<circle id="nose1_1_" cx="623.7" cy="216.1" r="0.8"/>
		<circle id="nose0_1_" cx="623.7" cy="210.3" r="0.8"/>
		<circle id="nose3_1_" cx="623.7" cy="228.7" r="0.8"/>
		<circle id="rightNose0_1_" cx="613" cy="233.2" r="0.8"/>
		<circle id="rightNose1_1_" cx="618.2" cy="233.2" r="0.8"/>
		<circle id="nose2_1_" cx="623.7" cy="221.6" r="0.8"/>
		<circle id="nose4_1_" cx="623.7" cy="234" r="0.8"/>
		<circle id="leftNose0_1_" cx="634.1" cy="233.2" r="0.8"/>
		<circle id="leftNose1_1_" cx="629.3" cy="233.2" r="0.8"/>
		<path fill="#E0E0E0" d="M632.315,234.272c0.862-1.781,0.569-3.705-0.654-4.297c-0.773-0.375-1.733-0.126-2.554,0.557
			c0.024,0.014-0.028-0.063-0.522,0.508c-0.291,0.337-0.051,0.037-0.406,0.541c-0.059,0.082-0.064,0.123-0.141,0.254
			c0.055-0.094-0.104,0.192-0.153,0.292c-0.862,1.781-0.569,3.705,0.653,4.297C629.763,237.017,631.453,236.053,632.315,234.272"/>
		<path fill="#E0E0E0" d="M620.332,232.013c-0.955-1.714-2.684-2.572-3.861-1.917c-0.744,0.415-1.09,1.336-1.002,2.391
			c0.024-0.012-0.068-0.012,0.114,0.714c0.108,0.428,0.001,0.063,0.208,0.639c0.033,0.094,0.063,0.122,0.126,0.258
			c-0.045-0.098,0.097,0.195,0.15,0.291c0.954,1.714,2.683,2.573,3.86,1.917S621.286,233.728,620.332,232.013"/>
	</g>
</g>
<g id="skeleton_1_" display="none">
	<polygon display="inline" fill="none" stroke="#000000" stroke-miterlimit="10" points="518.8,349.5 569.1,565.3 685.5,564.5 
		731.7,349.5 	"/>
	<polyline display="inline" fill="none" stroke="#000000" stroke-miterlimit="10" points="517.8,349.5 415.1,349.5 251.8,355.8 	"/>
	<polyline display="inline" fill="none" stroke="#000000" stroke-miterlimit="10" points="733.2,349.1 836.4,349.1 999.7,355.5 	"/>
	<polyline display="inline" fill="none" stroke="#000000" stroke-miterlimit="10" points="569.1,565.3 575.5,725.5 575.5,933.5 	"/>
	<polyline display="inline" fill="none" stroke="#000000" stroke-miterlimit="10" points="685.5,564.5 685.5,725.5 685.5,933.5 	"/>
	<polyline display="inline" fill="none" stroke="#000000" stroke-miterlimit="10" points="624.5,170 604.7,172.5 592.2,182 
		583.6,196.1 581.1,205.4 580.3,217.1 580.3,226.6 581.1,248.3 587.9,268.3 599.5,280.8 609.5,287.5 624.5,290.7 639.3,287.9 
		649.3,281.2 660.9,268.6 667.7,248.6 668.5,227 668.5,217.4 667.7,205.7 665.2,196.5 657,182 644.4,172.5 624.5,170 	"/>
	<polyline display="inline" fill="none" stroke="#000000" stroke-miterlimit="10" points="588.5,206.9 592.5,203.2 598.7,202.2 
		606,202.2 615.8,206.2 	"/>
	<polygon display="inline" fill="none" stroke="#000000" stroke-miterlimit="10" points="594.7,215.1 599.9,211.4 606.2,211.4 
		611.4,215.6 606.2,216.6 599.9,217.4 	"/>
	<polyline display="inline" fill="none" stroke="#000000" stroke-miterlimit="10" points="613,233.2 618.2,233.2 623.7,234 
		623.7,228.7 623.7,221.6 623.7,216.1 623.7,210.3 	"/>
	<polyline display="inline" fill="none" stroke="#000000" stroke-miterlimit="10" points="660,206.5 656,203.6 649.7,202.1 
		642.4,202.5 632.4,205.7 	"/>
	<polygon display="inline" fill="none" stroke="#000000" stroke-miterlimit="10" points="654.1,215.1 648.8,211.4 642.5,211.4 
		637.4,215.6 642.5,216.6 648.8,217.4 	"/>
	<polyline display="inline" fill="none" stroke="#000000" stroke-miterlimit="10" points="634.1,233.2 629.1,233.2 623.7,234 	"/>
	<polygon display="inline" fill="none" stroke="#000000" stroke-miterlimit="10" points="607,255.3 613.9,251.9 620.4,250.8 
		624.5,251.7 628.7,250.8 635.1,251.9 642,255.3 635.6,261.6 628.5,264.4 624.5,264.9 620.4,264.4 613.4,261.6 	"/>
	<polyline display="inline" fill="none" stroke="#000000" stroke-miterlimit="10" points="607,255.3 610.6,255.6 620.6,254.8 
		624.5,255.3 628.5,254.8 638.4,255.6 642,255.3 	"/>
	<polyline display="inline" fill="none" stroke="#000000" stroke-miterlimit="10" points="607,255.3 610.6,255.6 620.6,257.7 
		624.5,258.5 628.5,257.7 638.4,255.6 642,255.3 	"/>
	<circle id="rightShoulder" display="inline" cx="518.9" cy="349.2" r="8.2"/>
	<circle id="rightElbow" display="inline" cx="415.4" cy="349.3" r="8.2"/>
	<circle id="rightWrist" display="inline" cx="252" cy="355.7" r="8.2"/>
	<circle id="rightHip" display="inline" cx="569.2" cy="565" r="8.2"/>
	<circle id="rightKnee" display="inline" cx="575.6" cy="725.2" r="8.2"/>
	<circle id="rightAnkle" display="inline" cx="575.6" cy="933.2" r="8.2"/>
	<circle id="leftElbow" display="inline" cx="836.2" cy="348.9" r="8.2"/>
	<circle id="leftWrist" display="inline" cx="999.6" cy="355.2" r="8.2"/>
	<circle id="leftHip" display="inline" cx="685.6" cy="564.2" r="8.2"/>
	<circle id="leftKnee" display="inline" cx="685.6" cy="725.2" r="8.2"/>
	<circle id="leftAnkle" display="inline" cx="685.6" cy="933.2" r="8.2"/>
	<circle id="rightEye0" display="inline" cx="594.7" cy="215.1" r="0.8"/>
	<circle id="rightBrow1" display="inline" cx="592.5" cy="203.2" r="0.8"/>
	<circle id="rightBrow4" display="inline" cx="615.8" cy="206.2" r="0.8"/>
	<circle id="nose1" display="inline" cx="623.7" cy="216.1" r="0.8"/>
	<circle id="rightBrow3" display="inline" cx="606" cy="202.2" r="0.8"/>
	<circle id="rightEye1" display="inline" cx="599.9" cy="211.4" r="0.8"/>
	<circle id="rightBrow0" display="inline" cx="588.5" cy="206.9" r="0.8"/>
	<circle id="rightBrow2" display="inline" cx="598.7" cy="202.2" r="0.8"/>
	<circle id="rightEye5" display="inline" cx="599.9" cy="217.4" r="0.8"/>
	<circle id="rightEye2" display="inline" cx="606.2" cy="211.4" r="0.8"/>
	<circle id="rightEye3" display="inline" cx="611.4" cy="215.6" r="0.8"/>
	<circle id="nose0" display="inline" cx="623.7" cy="210.3" r="0.8"/>
	<circle id="nose3" display="inline" cx="623.7" cy="228.7" r="0.8"/>
	<circle id="rightNose0" display="inline" cx="613" cy="233.2" r="0.8"/>
	<circle id="rightMouthCorner" display="inline" cx="607" cy="255.3" r="0.8"/>
	<circle id="rightNose1" display="inline" cx="618.2" cy="233.2" r="0.8"/>
	<circle id="rightUpperLipTop0" display="inline" cx="613.9" cy="251.9" r="0.8"/>
	<circle id="nose2" display="inline" cx="623.7" cy="221.6" r="0.8"/>
	<circle id="nose4" display="inline" cx="623.7" cy="234" r="0.8"/>
	<circle id="upperLipTopMid" display="inline" cx="624.5" cy="251.7" r="0.8"/>
	<circle id="rightUpperLipTop1" display="inline" cx="620.4" cy="250.8" r="0.8"/>
	<path id="rightMiddleLip" display="inline" d="M610.6,254.8c0.4,0,0.801,0.4,0.801,0.8s-0.4,0.8-0.801,0.8
		c-0.399,0-0.8-0.4-0.8-0.8S610.2,254.8,610.6,254.8z"/>
	<circle id="lowerLipBottomMid" display="inline" cx="624.5" cy="264.9" r="0.8"/>
	<circle id="upperLipBottomMid" display="inline" cx="624.5" cy="255.3" r="0.8"/>
	<circle id="lowerLipTopMid" display="inline" cx="624.5" cy="258.4" r="0.8"/>
	<circle id="rightUpperLipBottom1" display="inline" cx="620.6" cy="254.8" r="0.8"/>
	<circle id="rightLowerLipTop0" display="inline" cx="620.6" cy="257.7" r="0.8"/>
	<circle id="rightLowerLipBottom1" display="inline" cx="620.4" cy="264.4" r="0.8"/>
	<circle id="rightLowerLipBottom0" display="inline" cx="613.4" cy="261.6" r="0.8"/>
	<circle id="rightEye4" display="inline" cx="606.2" cy="216.6" r="0.8"/>
	<circle id="jawMid" display="inline" cx="624.5" cy="290.7" r="0.8"/>
	<circle id="rightJaw7" display="inline" cx="609.5" cy="287.5" r="0.8"/>
	<circle id="rightJaw6" display="inline" cx="599.5" cy="280.8" r="0.8"/>
	<circle id="rightJaw5" display="inline" cx="587.9" cy="268.3" r="0.8"/>
	<circle id="rightJaw4" display="inline" cx="581.1" cy="248.3" r="0.8"/>
	<circle id="rightJaw3" display="inline" cx="580.3" cy="226.6" r="0.8"/>
	<circle id="rightJaw2" display="inline" cx="580.3" cy="217.1" r="0.8"/>
	<circle id="rightJaw1" display="inline" cx="581.1" cy="205.4" r="0.8"/>
	<circle id="rightJaw0" display="inline" cx="583.6" cy="196.1" r="0.8"/>
	<circle id="topMid" display="inline" cx="624.7" cy="170" r="0.8"/>
	<circle id="leftTop0" display="inline" cx="644.4" cy="172.5" r="0.8"/>
	<circle id="leftTop1" display="inline" cx="657" cy="182" r="0.8"/>
	<circle id="leftEye0" display="inline" cx="654.3" cy="215.1" r="0.8"/>
	<circle id="leftBrow1" display="inline" cx="656.2" cy="203.6" r="0.8"/>
	<circle id="leftBrow4" display="inline" cx="632.6" cy="205.7" r="0.8"/>
	<circle id="leftBrow3" display="inline" cx="642.6" cy="202.5" r="0.8"/>
	<circle id="leftEye1" display="inline" cx="649.1" cy="211.4" r="0.8"/>
	<circle id="leftBrow0" display="inline" cx="660.2" cy="206.5" r="0.8"/>
	<circle id="leftBrow2" display="inline" cx="649.9" cy="202.1" r="0.8"/>
	<circle id="leftEye5" display="inline" cx="649.1" cy="217.4" r="0.8"/>
	<circle id="leftEye2" display="inline" cx="642.8" cy="211.4" r="0.8"/>
	<circle id="leftEye3" display="inline" cx="637.6" cy="215.6" r="0.8"/>
	<circle id="leftNose0" display="inline" cx="634.1" cy="233.2" r="0.8"/>
	<circle id="leftMouthCorner" display="inline" cx="642" cy="255.3" r="0.8"/>
	<circle id="leftNose1" display="inline" cx="629.3" cy="233.2" r="0.8"/>
	<circle id="leftUpperLipTop0" display="inline" cx="635.1" cy="251.9" r="0.8"/>
	<circle id="leftUpperLipTop1" display="inline" cx="628.7" cy="250.8" r="0.8"/>
	<path id="leftMiddleLip" display="inline" d="M638.4,254.8c0.399,0,0.8,0.4,0.8,0.8s-0.4,0.8-0.8,0.8c-0.4,0-0.801-0.4-0.801-0.8
		S638,254.8,638.4,254.8z"/>
	<circle id="leftUpperLipBottom1" display="inline" cx="628.5" cy="254.8" r="0.8"/>
	<circle id="leftLowerLipTop0" display="inline" cx="628.5" cy="257.7" r="0.8"/>
	<circle id="leftLowerLipBottom1" display="inline" cx="628.7" cy="264.4" r="0.8"/>
	<circle id="leftLowerLipBottom0" display="inline" cx="635.6" cy="261.6" r="0.8"/>
	<circle id="leftEye4" display="inline" cx="642.8" cy="216.6" r="0.8"/>
	<circle id="leftJaw7" display="inline" cx="639.3" cy="287.9" r="0.8"/>
	<circle id="leftJaw6" display="inline" cx="649.3" cy="281.2" r="0.8"/>
	<circle id="leftJaw5" display="inline" cx="660.9" cy="268.6" r="0.8"/>
	<circle id="leftJaw4" display="inline" cx="667.7" cy="248.6" r="0.8"/>
	<circle id="leftJaw3" display="inline" cx="668.5" cy="227" r="0.8"/>
	<circle id="leftJaw2" display="inline" cx="668.5" cy="217.4" r="0.8"/>
	<circle id="leftJaw1" display="inline" cx="667.7" cy="205.7" r="0.8"/>
	<circle id="leftJaw0" display="inline" cx="665.2" cy="196.5" r="0.8"/>
	<circle id="rightTop0" display="inline" cx="604.8" cy="172.5" r="0.8"/>
	<circle id="rightTop1" display="inline" cx="592.2" cy="182" r="0.8"/>
	<circle id="leftShoulder" display="inline" cx="731.8" cy="349.2" r="8.2"/>
</g>
</svg>
